<svg xmlns="http://www.w3.org/2000/svg" viewBox="0 0 32 32" width="32" height="32">
  <!-- 식빵 몸체 -->
  <path d="M4 14 C4 6, 10 2, 16 2 C22 2, 28 6, 28 14 L28 26 C28 28, 26 30, 24 30 L8 30 C6 30, 4 28, 4 26 Z" fill="#F5C542"/>
  <!-- 식빵 윗부분 둥근 볼록 -->
  <path d="M4 14 C4 6, 10 2, 16 2 C22 2, 28 6, 28 14" fill="#E8B030"/>
  <!-- 식빵 안쪽 크러스트 라인 -->
  <path d="M7 14 C7 8, 11 5, 16 5 C21 5, 25 8, 25 14 L25 26 C25 27, 24 27, 24 27 L8 27 C7 27, 7 26, 7 26 Z" fill="#FFF3D1" opacity="0.6"/>
  <!-- 귀여운 눈 -->
  <circle cx="12" cy="18" r="1.5" fill="#5C3A1E"/>
  <circle cx="20" cy="18" r="1.5" fill="#5C3A1E"/>
  <!-- 미소 -->
  <path d="M13 22 Q16 25, 19 22" fill="none" stroke="#5C3A1E" stroke-width="1.2" stroke-linecap="round"/>
</svg>
